<svg class="injected-svg" id="svg-b8e2aef3-f2e6-4a3b-88d4-da36a6ea970d" height="100%" width="100%" viewBox="0 0 540 508" xmlns="http://www.w3.org/2000/svg"><g xmlns="http://www.w3.org/2000/svg" fill="#d68048" id="shape-svg"><title>forma_1</title><g id="Слой_2" data-name="Слой 2"><g id="Слой_1-2" data-name="Слой 1"><path transform="translate(82, 194) scale(1.2,1.2)" d="M307.47,6.32,304,6.5c-2.24.09-5.55.29-9.75.43l-15.17.55c-5.85.22-12.46.46-19.67.59l-23.26.51c-8.26.19-17,.42-26,.43l-56.46.41L97.29,9c-9,0-17.72-.26-26-.44L48,8.06c-7.2-.12-13.8-.37-19.66-.59L13.21,6.93C9,6.79,5.71,6.58,3.45,6.5L0,6.32V6l153.73-.18L307.47,6Z"></path><path transform="translate(82, 194) scale(1.2,1.2)" d="M257,.27l-8.88.31c-5.65.12-13.71.43-23.4.56s-21,.43-33.09.48l-37.94.2L115.8,1.61c-12.11-.06-23.4-.34-33.09-.47S65,.7,59.3.57L50.42.27V.09L153.73,0,257,.09Z"></path><path transform="translate(82, 194) scale(1.2,1.2)" d="M0,88.57l3.46-.18C5.7,88.3,9,88.09,13.21,88l15.17-.55c5.85-.22,12.46-.47,19.67-.59l23.26-.52c8.26-.18,17-.41,26-.43l56.45-.4,56.45.41c9,0,17.72.26,26,.44l23.28.51c7.2.12,13.8.37,19.66.59l15.17.54c4.2.13,7.5.35,9.76.43l3.45.18v.36l-153.74.18L0,88.93Z"></path><path transform="translate(82, 194) scale(1.2,1.2)" d="M50.43,94.62l8.88-.31c5.64-.12,13.71-.43,23.4-.57s21-.42,33.09-.47l37.93-.2,37.94.21c12.11,0,23.4.34,33.09.47s17.76.44,23.41.57l8.88.3v.18l-103.32.09L50.43,94.8Z"></path></g></g></g><path xmlns="http://www.w3.org/2000/svg" id="SvgjsPath23940716" d="M6.20-25.05Q6.20-26.55 5.85-27.07Q5.50-27.59 4.46-27.59L4.46-27.59Q4.00-27.59 3.55-27.54Q3.10-27.50 2.96-27.50L2.96-27.50L2.77-27.78L3.15-30.17Q3.81-30.17 5.55-30.10Q7.29-30.03 8.84-30.03L8.84-30.03Q10.11-30.03 11.98-30.20Q13.87-30.36 14.48-30.41L14.48-30.41L14.29-27.87Q12.55-27.54 11.91-26.98Q11.28-26.41 11.23-25.10L11.23-25.10L10.72-5.69Q10.67-3.81 11.07-3.15Q11.47-2.49 12.64-2.49L12.64-2.49Q13.39-2.49 13.94-2.54Q14.48-2.58 14.66-2.63L14.66-2.63L14.80-2.40L14.38 0.14Q13.68 0.14 11.84 0.07Q10.01 0 8.18 0L8.18 0Q6.20 0 4.51 0.05Q2.82 0.09 2.26 0.09L2.26 0.09L2.73-2.40Q4.18-2.58 4.89-2.91Q5.59-3.24 5.88-3.97Q6.16-4.70 6.16-6.06L6.16-6.06L6.20-25.05ZM11.98-15.65L19.74-23.88Q21.10-25.24 21.10-26.27L21.10-26.27Q21.10-26.88 20.45-27.24Q19.79-27.59 18.33-27.68L18.33-27.68L18.19-27.92L18.57-30.32Q19.18-30.27 21.06-30.15Q22.94-30.03 24.06-30.03L24.06-30.03Q25.57-30.03 26.95-30.10Q28.34-30.17 28.86-30.22L28.86-30.22L29.09-29.84L28.76-27.59Q27.45-27.17 26.30-26.25Q25.14-25.33 23.03-23.03L23.03-23.03L16.64-16.12L23.83-6.20Q25.43-4.00 26.67-3.10Q27.92-2.21 29.52-2.16L29.52-2.16L29.80-1.88L29.47 0.14Q28.86 0.23 27.07 0.45Q25.29 0.66 24.86 0.66L24.86 0.66Q22.28 0.66 19.65-3.34L19.65-3.34L11.89-14.80L11.98-15.65ZM41.97 0.42Q38.63 0.42 36.14-0.99Q33.65-2.40 32.31-4.98Q30.97-7.57 30.97-11.04L30.97-11.04Q30.97-14.80 32.59-17.72Q34.22-20.63 37.08-22.25Q39.95-23.88 43.66-23.88L43.66-23.88Q48.79-23.88 51.79-20.82Q54.80-17.77 54.80-12.50L54.80-12.50Q54.80-8.74 53.16-5.80Q51.51-2.87 48.60-1.22Q45.68 0.42 41.97 0.42L41.97 0.42ZM43.00-2.40Q46.01-2.40 47.80-4.61Q49.58-6.82 49.58-10.67L49.58-10.67Q49.58-15.42 47.70-18.05Q45.83-20.68 42.53-20.68L42.53-20.68Q39.57-20.68 37.86-18.49Q36.14-16.31 36.14-12.46L36.14-12.46Q36.14-7.71 37.98-5.05Q39.81-2.40 43.00-2.40L43.00-2.40ZM77.78-7.85L77.69-19.69Q77.69-20.54 77.39-20.89Q77.08-21.24 76.42-21.24L76.42-21.24L75.06-21.24L74.97-21.48L75.25-23.59Q75.76-23.55 77.10-23.50Q78.44-23.45 79.81-23.45L79.81-23.45Q80.93-23.45 82.34-23.55Q83.75-23.64 84.18-23.69L84.18-23.69L83.99-21.43Q82.63-21.24 82.06-20.73Q81.50-20.21 81.45-19.08L81.45-19.08L80.93 0.61L77.78 1.08Q73.74-4.89 69.63-10.53Q65.52-16.17 65.52-16.07L65.52-16.07L65.19-16.07L65.14-3.81Q65.14-2.87 65.42-2.51Q65.71-2.16 66.41-2.16L66.41-2.16L68.15-2.21L68.39-2.07L67.96 0.14Q67.44 0.09 66.08 0.05Q64.72 0 63.26 0L63.26 0Q62.09 0 60.70 0.12Q59.31 0.23 58.89 0.28L58.89 0.28L59.17-1.97Q60.35-2.12 60.89-2.63Q61.43-3.15 61.48-4.28L61.48-4.28L61.99-19.13Q61.99-20.30 61.34-20.75Q60.68-21.20 58.80-21.43L58.80-21.43L58.52-21.71L58.84-23.64Q59.27-23.59 60.58-23.52Q61.90-23.45 62.93-23.45L62.93-23.45Q64.11-23.45 65.05-23.50Q65.99-23.55 66.32-23.59L66.32-23.59Q69.70-18.47 73.09-13.82Q76.47-9.16 77.46-7.85L77.46-7.85L77.78-7.85ZM106.78-7.85L106.69-19.69Q106.69-20.54 106.38-20.89Q106.08-21.24 105.42-21.24L105.42-21.24L104.06-21.24L103.96-21.48L104.25-23.59Q104.76-23.55 106.10-23.50Q107.44-23.45 108.80-23.45L108.80-23.45Q109.93-23.45 111.34-23.55Q112.75-23.64 113.18-23.69L113.18-23.69L112.99-21.43Q111.63-21.24 111.06-20.73Q110.50-20.21 110.45-19.08L110.45-19.08L109.93 0.61L106.78 1.08Q102.74-4.89 98.63-10.53Q94.52-16.17 94.52-16.07L94.52-16.07L94.19-16.07L94.14-3.81Q94.14-2.87 94.42-2.51Q94.70-2.16 95.41-2.16L95.41-2.16L97.15-2.21L97.38-2.07L96.96 0.14Q96.44 0.09 95.08 0.05Q93.72 0 92.26 0L92.26 0Q91.09 0 89.70 0.12Q88.31 0.23 87.89 0.28L87.89 0.28L88.17-1.97Q89.35-2.12 89.89-2.63Q90.43-3.15 90.47-4.28L90.47-4.28L90.99-19.13Q90.99-20.30 90.33-20.75Q89.68-21.20 87.80-21.43L87.80-21.43L87.51-21.71L87.84-23.64Q88.27-23.59 89.58-23.52Q90.90-23.45 91.93-23.45L91.93-23.45Q93.11-23.45 94.05-23.50Q94.99-23.55 95.32-23.59L95.32-23.59Q98.70-18.47 102.08-13.82Q105.47-9.16 106.45-7.85L106.45-7.85L106.78-7.85ZM116.65 0.38L116.89-1.93Q118.53-2.12 119.14-2.80Q119.76-3.48 119.76-5.08L119.76-5.08L119.80-19.32Q119.80-20.49 119.54-20.89Q119.29-21.29 118.49-21.29L118.49-21.29L117.26-21.24L117.08-21.48L117.41-23.55Q118.06-23.55 119.92-23.50Q121.78-23.45 123.94-23.45L123.94-23.45Q132.07-23.45 135.64-23.88L135.64-23.88L135.88-23.59Q135.78-23.03 135.45-21.10Q135.13-19.18 134.98-17.01L134.98-17.01L131.98-16.83Q131.98-16.97 132.02-17.41Q132.07-17.86 132.07-18.33L132.07-18.33Q132.07-19.46 131.74-19.93Q131.41-20.40 130.38-20.56Q129.34-20.73 126.90-20.73L126.90-20.73Q125.82-20.73 125.37-20.63Q124.93-20.54 124.78-20.30Q124.64-20.07 124.64-19.46L124.64-19.46L124.36-13.39L128.03-13.35Q128.87-13.35 130.50-13.51Q132.12-13.68 132.63-13.72L132.63-13.72L132.87-13.39L132.30-10.53Q131.79-10.53 130.31-10.57Q128.83-10.62 127.18-10.62L127.18-10.62Q125.96-10.62 124.22-10.39L124.22-10.39Q124.13-7.38 124.13-4.79L124.13-4.79Q124.13-3.76 124.29-3.31Q124.46-2.87 124.97-2.73Q125.49-2.58 126.76-2.58L126.76-2.58Q129.48-2.58 130.68-2.87Q131.88-3.15 132.40-4.00Q132.92-4.84 133.25-6.86L133.25-6.86L135.97-7.05L136.25-6.77Q136.11-6.20 135.76-4.23Q135.41-2.26 135.22-0.09L135.22-0.09L134.84 0.23Q133.62 0.19 129.65 0.09Q125.68 0 122.90 0L122.90 0Q120.84 0 119.00 0.16Q117.17 0.33 116.65 0.38L116.65 0.38ZM143.77-19.32Q143.77-20.49 143.49-20.89Q143.21-21.29 142.36-21.29L142.36-21.29L141.14-21.24L140.95-21.53L141.28-23.55L146.17-23.45Q147.20-23.45 148.92-23.57Q150.63-23.69 151.15-23.73L151.15-23.73L150.96-21.48Q149.51-21.24 149.01-20.80Q148.52-20.35 148.47-19.36L148.47-19.36L148.10-4.70Q148.05-3.20 148.38-2.68Q148.71-2.16 149.65-2.16L149.65-2.16Q150.21-2.16 150.63-2.21Q151.06-2.26 151.20-2.30L151.20-2.30L151.34-2.07L151.01 0.09Q150.40 0.09 148.83 0.05Q147.25 0 145.70 0L145.70 0Q144.05 0 142.60 0.05Q141.14 0.09 140.62 0.09L140.62 0.09L141-2.12Q142.69-2.35 143.21-2.87Q143.73-3.38 143.73-4.98L143.73-4.98L143.77-19.32ZM149.04-12.31L155.10-18.42Q156.18-19.41 156.18-20.21L156.18-20.21Q156.18-20.73 155.66-20.99Q155.15-21.24 154.02-21.34L154.02-21.34L153.88-21.57L154.21-23.69Q154.72-23.64 156.30-23.55Q157.87-23.45 158.86-23.45L158.86-23.45Q160.13-23.45 161.37-23.50Q162.62-23.55 163.09-23.59L163.09-23.59L163.32-23.27L163.00-21.29Q161.87-20.91 160.86-20.09Q159.85-19.27 158.16-17.39L158.16-17.39L153.45-12.64L159.00-5.17Q160.22-3.48 161.23-2.75Q162.24-2.02 163.56-1.97L163.56-1.97L163.79-1.65L163.51 0.09Q162.95 0.14 161.61 0.31Q160.27 0.47 159.38 0.52L159.38 0.52Q157.12 0.52 155.10-2.54L155.10-2.54L148.99-11.56L149.04-12.31ZM169.34 0.23L169.67-2.02Q171.50-2.16 172.28-2.49Q173.05-2.82 173.29-3.55Q173.52-4.28 173.52-6.02L173.52-6.02L173.52-20.96Q171.13-20.87 170.16-20.61Q169.20-20.35 168.75-19.43Q168.31-18.52 168.03-16.17L168.03-16.17L165.21-16.03Q165.30-16.68 165.49-19.01Q165.68-21.34 165.72-23.50L165.72-23.50L166.10-23.88L169.76-23.50L181.80-23.50L185.51-23.88L185.93-23.50Q185.98-21.29 186.17-19.06Q186.35-16.83 186.40-16.17L186.40-16.17L183.58-16.03Q183.25-18.47 182.83-19.41Q182.41-20.35 181.51-20.61Q180.62-20.87 178.37-20.96L178.37-20.96Q178.18-18.57 178.01-13.75Q177.85-8.93 177.85-4.75L177.85-4.75Q177.85-3.38 178.34-2.82Q178.84-2.26 180.01-2.26L180.01-2.26Q180.81-2.26 181.35-2.30Q181.89-2.35 182.03-2.35L182.03-2.35L182.22-2.16L181.89 0.14Q181.19 0.14 179.26 0.07Q177.33 0 175.50 0L175.50 0Q174.18 0 172.09 0.09Q170.00 0.19 169.34 0.23L169.34 0.23ZM199.37 0.42Q196.04 0.42 193.55-0.99Q191.06-2.40 189.72-4.98Q188.38-7.57 188.38-11.04L188.38-11.04Q188.38-14.80 190.00-17.72Q191.62-20.63 194.49-22.25Q197.35-23.88 201.07-23.88L201.07-23.88Q206.19-23.88 209.20-20.82Q212.20-17.77 212.20-12.50L212.20-12.50Q212.20-8.74 210.56-5.80Q208.91-2.87 206.00-1.22Q203.09 0.42 199.37 0.42L199.37 0.42ZM200.41-2.40Q203.42-2.40 205.20-4.61Q206.99-6.82 206.99-10.67L206.99-10.67Q206.99-15.42 205.11-18.05Q203.23-20.68 199.94-20.68L199.94-20.68Q196.98-20.68 195.26-18.49Q193.55-16.31 193.55-12.46L193.55-12.46Q193.55-7.71 195.38-5.05Q197.21-2.40 200.41-2.40L200.41-2.40ZM234.20 0.56Q231.80 0.56 230.02-2.82L230.02-2.82L226.45-9.40L223.63-9.40L223.53-5.03Q223.53-3.71 223.72-3.15Q223.91-2.58 224.45-2.40Q224.99-2.21 226.30-2.16L226.30-2.16L226.45-1.97L226.02 0.14Q225.36 0.09 223.72 0.07Q222.07 0.05 220.62 0.05L220.62 0.05Q219.25 0.05 217.87 0.12Q216.48 0.19 216.06 0.23L216.06 0.23L216.39-2.07Q218.03-2.30 218.60-2.87Q219.16-3.43 219.16-5.03L219.16-5.03L219.21-19.46Q219.21-20.54 218.93-20.91Q218.64-21.29 217.94-21.29L217.94-21.29L216.58-21.24L216.39-21.48L216.72-23.55Q217.23-23.55 218.64-23.50Q220.05-23.45 221.42-23.45L221.42-23.45Q222.92-23.45 224.59-23.52Q226.26-23.59 226.92-23.64L226.92-23.64Q231.10-23.64 233.40-22.02Q235.70-20.40 235.70-17.48L235.70-17.48Q235.70-15.32 234.32-13.51Q232.93-11.70 230.35-10.48L230.35-10.48L233.97-5.03Q235.09-3.34 236.10-2.61Q237.11-1.88 238.43-1.88L238.43-1.88L238.67-1.55L238.38 0.19L234.20 0.56ZM227.29-12.03Q230.86-13.39 230.86-16.78L230.86-16.78Q230.86-18.89 229.36-19.93Q227.86-20.96 224.71-20.96L224.71-20.96Q224.33-20.96 224.19-20.80Q224.05-20.63 224.05-20.12L224.05-20.12Q223.72-14.71 223.72-12.41L223.72-12.41L227.29-12.03ZM254.27-25.05Q254.27-26.55 253.92-27.07Q253.56-27.59 252.53-27.59L252.53-27.59Q252.06-27.59 251.61-27.54Q251.17-27.50 251.03-27.50L251.03-27.50L250.84-27.78L251.21-30.17Q251.87-30.17 253.61-30.10Q255.35-30.03 256.90-30.03L256.90-30.03Q258.17-30.03 260.05-30.20Q261.93-30.36 262.54-30.41L262.54-30.41L262.35-27.87Q260.61-27.54 259.98-26.98Q259.35-26.41 259.30-25.10L259.30-25.10L258.78-5.69Q258.73-3.81 259.13-3.15Q259.53-2.49 260.71-2.49L260.71-2.49Q261.46-2.49 262.00-2.54Q262.54-2.58 262.73-2.63L262.73-2.63L262.87-2.40L262.45 0.14Q261.74 0.14 259.91 0.07Q258.08 0 256.24 0L256.24 0Q254.27 0 252.58 0.05Q250.89 0.09 250.32 0.09L250.32 0.09L250.79-2.40Q252.25-2.58 252.95-2.91Q253.66-3.24 253.94-3.97Q254.22-4.70 254.22-6.06L254.22-6.06L254.27-25.05ZM260.05-15.65L267.81-23.88Q269.17-25.24 269.17-26.27L269.17-26.27Q269.17-26.88 268.51-27.24Q267.85-27.59 266.40-27.68L266.40-27.68L266.25-27.92L266.63-30.32Q267.24-30.27 269.12-30.15Q271.00-30.03 272.13-30.03L272.13-30.03Q273.63-30.03 275.02-30.10Q276.41-30.17 276.92-30.22L276.92-30.22L277.16-29.84L276.83-27.59Q275.51-27.17 274.36-26.25Q273.21-25.33 271.10-23.03L271.10-23.03L264.70-16.12L271.89-6.20Q273.49-4.00 274.74-3.10Q275.98-2.21 277.58-2.16L277.58-2.16L277.86-1.88L277.53 0.14Q276.92 0.23 275.14 0.45Q273.35 0.66 272.93 0.66L272.93 0.66Q270.34 0.66 267.71-3.34L267.71-3.34L259.96-14.80L260.05-15.65ZM290.04 0.42Q286.70 0.42 284.21-0.99Q281.72-2.40 280.38-4.98Q279.04-7.57 279.04-11.04L279.04-11.04Q279.04-14.80 280.66-17.72Q282.28-20.63 285.15-22.25Q288.02-23.88 291.73-23.88L291.73-23.88Q296.85-23.88 299.86-20.82Q302.87-17.77 302.87-12.50L302.87-12.50Q302.87-8.74 301.22-5.80Q299.58-2.87 296.66-1.22Q293.75 0.42 290.04 0.42L290.04 0.42ZM291.07-2.40Q294.08-2.40 295.87-4.61Q297.65-6.82 297.65-10.67L297.65-10.67Q297.65-15.42 295.77-18.05Q293.89-20.68 290.60-20.68L290.60-20.68Q287.64-20.68 285.92-18.49Q284.21-16.31 284.21-12.46L284.21-12.46Q284.21-7.71 286.04-5.05Q287.88-2.40 291.07-2.40L291.07-2.40ZM319.65 0.61Q315.42-11.47 313.21-16.97L313.21-16.97L312.93-16.97Q312.79-14.99 312.39-9.47Q311.99-3.95 311.99-3.38L311.99-3.38Q311.99-2.77 312.27-2.49Q312.55-2.21 313.21-2.21L313.21-2.21L314.62-2.21L314.76-2.07L314.38 0.14Q313.87 0.14 312.55 0.07Q311.23 0 310.01 0L310.01 0Q309.07 0 307.90 0.12Q306.72 0.23 306.35 0.28L306.35 0.28L306.53-1.97Q307.71-2.12 308.25-2.70Q308.79-3.29 308.93-4.65L308.93-4.65Q309.31-7.57 309.92-13.23Q310.53-18.89 310.53-19.60L310.53-19.60Q310.53-20.54 309.89-20.94Q309.26-21.34 307.47-21.43L307.47-21.43L307.29-21.71L307.62-23.64Q308.18-23.59 309.59-23.52Q311.00-23.45 312.31-23.45L312.31-23.45Q313.54-23.45 314.62-23.50Q315.70-23.55 316.07-23.59L316.07-23.59Q317.77-18.14 319.34-13.61Q320.92-9.07 321.39-7.85L321.39-7.85L321.67-7.85Q322.14-9.07 323.76-13.61Q325.38-18.14 327.21-23.50L327.21-23.50Q327.78-23.55 328.39-23.52Q329-23.50 329.47-23.50L329.47-23.50Q330.13-23.45 331.30-23.45L331.30-23.45Q332.52-23.50 333.70-23.57Q334.88-23.64 335.30-23.69L335.30-23.69L335.44-23.55L335.16-21.53Q333.51-21.39 332.90-20.96Q332.29-20.54 332.29-19.55L332.29-19.55Q332.29-18.42 332.62-13.68Q332.95-8.93 333.28-5.59L333.28-5.59Q333.51-3.57 333.86-2.89Q334.22-2.21 335.11-2.21L335.11-2.21L336.24-2.26L336.33-2.12L336.00 0.09Q335.63 0.09 334.52 0.05Q333.42 0 332.15 0L332.15 0Q330.79 0 329.24 0.09Q327.68 0.19 326.98 0.28L326.98 0.28L327.26-1.97Q328.44-2.12 328.93-2.54Q329.42-2.96 329.42-3.81L329.42-3.81Q329.42-4.70 329.02-9.89Q328.62-15.09 328.48-16.97L328.48-16.97L328.20-16.97Q325.19-9.45 321.81 0.28L321.81 0.28L319.65 0.61ZM340.37 0.28L340.66-1.97Q342.25-2.26 342.79-2.87Q343.34-3.48 343.34-5.03L343.34-5.03L343.38-19.32Q343.38-20.45 343.10-20.87Q342.82-21.29 342.11-21.29L342.11-21.29L340.75-21.24L340.56-21.48L340.89-23.55Q341.60-23.55 342.25-23.50L342.25-23.50L345.59-23.45Q347.00-23.45 348.72-23.52Q350.43-23.59 351.14-23.64L351.14-23.64Q355.79-23.64 357.95-21.71Q360.11-19.79 360.11-16.73L360.11-16.73Q360.11-14.62 358.85-12.69Q357.58-10.76 355.46-9.61Q353.35-8.46 351.00-8.46L351.00-8.46L347.75-8.46L347.71-5.55Q347.71-4.04 347.82-3.36Q347.94-2.68 348.29-2.44Q348.65-2.21 349.45-2.21L349.45-2.21Q350.06-2.21 350.60-2.26Q351.14-2.30 351.33-2.30L351.33-2.30L351.42-2.07L351.04 0.09Q350.53 0.09 349.21 0.05Q347.89 0 346.63 0L346.63 0Q345.26 0 343.17 0.09Q341.08 0.19 340.37 0.28L340.37 0.28ZM351.47-11.00Q355.32-11.70 355.32-16.12L355.32-16.12Q355.32-18.57 353.84-19.69Q352.36-20.82 349.12-20.82L349.12-20.82Q348.55-20.82 348.41-20.73Q348.27-20.63 348.22-20.21L348.22-20.21L348.13-18.61Q348.08-17.48 347.99-15.67Q347.89-13.87 347.85-11.47L347.85-11.47L351.47-11.00ZM372.99 0.28L372.85 0.05L372.99-1.97Q374.97-2.16 375.55-2.40Q376.14-2.63 376.14-3.34L376.14-3.34Q376.14-3.95 375.86-4.70L375.86-4.70L374.97-7.75Q373.98-7.80 371.25-7.80L371.25-7.80Q369.80-7.80 367.45-7.57L367.45-7.57L366.32-4.56Q366.08-3.62 366.08-3.38L366.08-3.38Q366.08-2.68 366.53-2.40Q366.98-2.12 368.06-2.12L368.06-2.12L369.80-2.12L369.98-1.88L369.70 0.23Q369.19 0.19 367.45 0.09Q365.71 0 364.16 0L364.16 0Q362.60 0 361.34 0.05Q360.07 0.09 359.64 0.09L359.64 0.09L359.93-2.16Q360.87-2.30 361.45-2.84Q362.04-3.38 362.56-4.70L362.56-4.70L369.65-23.27L374.64-23.88L375.06-23.73Q375.62-21.67 377.46-15.25Q379.29-8.84 380.75-4.70L380.75-4.70Q381.17-3.34 381.85-2.80Q382.53-2.26 383.99-2.12L383.99-2.12L384.13-1.88L383.85 0.09Q383.38 0.09 382.04 0.05Q380.70 0 379.29 0L379.29 0Q377.32 0 375.41 0.12Q373.51 0.23 372.99 0.28L372.99 0.28ZM368.29-10.39L371.21-10.39Q373.04-10.39 374.31-10.53L374.31-10.53L371.82-18.99L371.35-18.99L368.29-10.39ZM393.30 0.42Q391.56 0.42 390.10 0.14Q388.64-0.14 387.80-0.47Q386.95-0.80 386.72-0.89L386.72-0.89L386.43-1.41Q386.48-1.65 386.60-2.49Q386.72-3.34 386.86-4.79Q387.00-6.25 387.00-7.66L387.00-7.66L389.77-7.90Q389.77-5.69 390.17-4.54Q390.57-3.38 391.51-2.94Q392.45-2.49 394.24-2.49L394.24-2.49Q396.26-2.49 397.48-3.31Q398.70-4.14 398.70-5.55L398.70-5.55Q398.70-6.53 397.95-7.31Q397.20-8.08 396.30-8.55Q395.41-9.02 392.97-10.15L392.97-10.15Q390.01-11.56 388.41-13.00Q386.81-14.43 386.81-16.73L386.81-16.73Q386.81-18.80 388.08-20.42Q389.35-22.04 391.60-22.96Q393.86-23.88 396.68-23.88L396.68-23.88Q398.32-23.88 399.73-23.69Q401.14-23.50 401.99-23.29Q402.84-23.08 403.07-22.98L403.07-22.98L403.31-22.51Q403.21-22.00 402.88-20.16Q402.55-18.33 402.37-16.26L402.37-16.26L399.92-16.07L399.59-16.26Q399.59-16.36 399.62-16.76Q399.64-17.16 399.64-17.72L399.64-17.72Q399.64-19.41 398.75-20.12Q397.85-20.82 395.65-20.82L395.65-20.82Q393.91-20.82 392.73-20.00Q391.56-19.18 391.56-17.95L391.56-17.95Q391.56-16.68 392.83-15.79Q394.09-14.90 396.73-13.68L396.73-13.68Q398.98-12.64 400.35-11.82Q401.71-11.00 402.70-9.78Q403.68-8.55 403.68-6.86L403.68-6.86Q403.68-4.70 402.39-3.06Q401.10-1.41 398.75-0.49Q396.40 0.42 393.30 0.42L393.30 0.42ZM415.01 0.42Q413.27 0.42 411.81 0.14Q410.36-0.14 409.51-0.47Q408.66-0.80 408.43-0.89L408.43-0.89L408.15-1.41Q408.19-1.65 408.31-2.49Q408.43-3.34 408.57-4.79Q408.71-6.25 408.71-7.66L408.71-7.66L411.48-7.90Q411.48-5.69 411.88-4.54Q412.28-3.38 413.22-2.94Q414.16-2.49 415.95-2.49L415.95-2.49Q417.97-2.49 419.19-3.31Q420.41-4.14 420.41-5.55L420.41-5.55Q420.41-6.53 419.66-7.31Q418.91-8.08 418.02-8.55Q417.12-9.02 414.68-10.15L414.68-10.15Q411.72-11.56 410.12-13.00Q408.52-14.43 408.52-16.73L408.52-16.73Q408.52-18.80 409.79-20.42Q411.06-22.04 413.32-22.96Q415.57-23.88 418.39-23.88L418.39-23.88Q420.04-23.88 421.45-23.69Q422.86-23.50 423.70-23.29Q424.55-23.08 424.79-22.98L424.79-22.98L425.02-22.51Q424.93-22.00 424.60-20.16Q424.27-18.33 424.08-16.26L424.08-16.26L421.64-16.07L421.31-16.26Q421.31-16.36 421.33-16.76Q421.35-17.16 421.35-17.72L421.35-17.72Q421.35-19.41 420.46-20.12Q419.57-20.82 417.36-20.82L417.36-20.82Q415.62-20.82 414.45-20.00Q413.27-19.18 413.27-17.95L413.27-17.95Q413.27-16.68 414.54-15.79Q415.81-14.90 418.44-13.68L418.44-13.68Q420.70-12.64 422.06-11.82Q423.42-11.00 424.41-9.78Q425.40-8.55 425.40-6.86L425.40-6.86Q425.40-4.70 424.10-3.06Q422.81-1.41 420.46-0.49Q418.11 0.42 415.01 0.42L415.01 0.42Z" fill="#e18650" fontsize="47" transform="matrix(1,0,0,1,56.17000000000001,261.165)"></path></svg>